<svg width="300" height="340" viewBox="0 0 300 340" fill="none" xmlns="http://www.w3.org/2000/svg">
  <defs>
    <linearGradient id="hex_grad" x1="150" y1="20" x2="150" y2="320" gradientUnits="userSpaceOnUse">
      <stop stop-color="#80FFFF" />
      <stop offset="1" stop-color="#2EB2DE" />
    </linearGradient>
    
    <linearGradient id="grid_grad" x1="70" y1="120" x2="180" y2="230" gradientUnits="userSpaceOnUse">
      <stop stop-color="#4facfe" />
      <stop offset="1" stop-color="#006694" />
    </linearGradient>

    <linearGradient id="bubble_grad" x1="210" y1="120" x2="210" y2="260" gradientUnits="userSpaceOnUse">
      <stop stop-color="#A0FFFF" stop-opacity="0.9" />
      <stop offset="0.5" stop-color="#4facfe" stop-opacity="0.8" />
      <stop offset="1" stop-color="#004466" stop-opacity="0.9" />
    </linearGradient>

    <filter id="glow" x="-20%" y="-20%" width="140%" height="140%">
      <feGaussianBlur stdDeviation="5" result="blur" />
      <feComposite in="SourceGraphic" in2="blur" operator="over" />
    </filter>
  </defs>

  <path d="M150 20L275 92.5V237.5L150 310L25 237.5V92.5L150 20Z" stroke="url(#hex_grad)" stroke-width="4" filter="url(#glow)" stroke-linejoin="round" />

  <g transform="translate(115, 185) rotate(-45)">
    <rect x="-60" y="-60" width="120" height="120" rx="15" fill="url(#grid_grad)" fill-opacity="0.7" />
    <rect x="-45" y="-45" width="20" height="20" rx="2" fill="#0A3625" />
    <rect x="-10" y="-45" width="20" height="20" rx="2" fill="#0A3625" />
    <rect x="25" y="-45" width="20" height="20" rx="2" fill="#0A3625" />
    <rect x="-45" y="-10" width="20" height="20" rx="2" fill="#0A3625" />
    <rect x="-10" y="-10" width="20" height="20" rx="2" fill="#0A3625" />
    <rect x="25" y="-10" width="20" height="20" rx="2" fill="#0A3625" />
    <rect x="-45" y="25" width="20" height="20" rx="2" fill="#0A3625" />
    <rect x="-10" y="25" width="20" height="20" rx="2" fill="#0A3625" />
    <rect x="25" y="25" width="20" height="20" rx="2" fill="#0A3625" />
  </g>

  <mask id="bubble_mask">
    <circle cx="190" cy="180" r="75" fill="white" />
    <circle cx="160" cy="150" r="15" fill="black" />
    <circle cx="195" cy="140" r="22" fill="black" />
    <circle cx="230" cy="170" r="12" fill="black" />
    <circle cx="240" cy="210" r="18" fill="black" />
    <circle cx="205" cy="235" r="14" fill="black" />
    <circle cx="170" cy="220" r="20" fill="black" />
    <circle cx="195" cy="185" r="25" fill="black" />
    <circle cx="145" cy="190" r="10" fill="black" />
  </mask>

  <circle cx="190" cy="180" r="75" fill="url(#bubble_grad)" mask="url(#bubble_mask)" stroke="#80FFFF" stroke-width="1" />
  
  <ellipse cx="175" cy="155" rx="30" ry="20" fill="white" fill-opacity="0.25" transform="rotate(-30, 175, 155)" />
</svg>
